<?xml version="1.0" encoding="utf-8"?>
<!-- Generator: Adobe Illustrator 22.1.0, SVG Export Plug-In . SVG Version: 6.00 Build 0)  -->
<svg version="1.1" id="Calque_1" xmlns="http://www.w3.org/2000/svg" xmlns:xlink="http://www.w3.org/1999/xlink" x="0px" y="0px"
	 viewBox="0 0 278.5 1156.7" style="enable-background:new 0 0 278.5 1156.7;" xml:space="preserve">
<style type="text/css">
	.st0{fill:#BCBCBB;}
	.st1{fill:#656565;}
	.st2{fill:#343434;}
	.st3{fill:#8F8F8F;}
	.st4{fill:#DEDEDE;}
	.st5{fill:#FEFEFE;}
	.st6{fill:#FCFCFC;}
	.st7{fill:#EBEBEB;}
	.st8{fill:#DCDCDC;}
	.st9{fill:#CBCACA;}
	.st10{fill:#E0E0E0;}
	.st11{fill:#D8D8D8;}
	.st12{fill:#A7A6A6;}
	.st13{fill:#EEEDED;}
	.st14{fill:#E9E9E9;}
	.st15{fill:#C7C6C6;}
	.st16{fill:#C9C9C9;}
	.st17{fill:#939393;}
	.st18{fill:#B8B8B8;}
	.st19{fill:#6F6F6E;}
	.st20{fill:#B5B4B4;}
	.st21{fill:#CFCECE;}
	.st22{fill:#BEBDBE;}
	.st23{fill:#A8A8A8;}
	.st24{fill:#919191;}
	.st25{fill:#9A9999;}
	.st26{fill:#969696;}
	.st27{fill:#878787;}
	.st28{fill:#C0C0BF;}
	.st29{fill:#636363;}
	.st30{fill:#797879;}
	.st31{fill:#868686;}
	.st32{fill:#888989;}
	.st33{fill:#8C8C8D;}
	.st34{fill:#B2B2B2;}
	.st35{fill:#B0B0AF;}
	.st36{fill:#818282;}
	.st37{fill:#676767;}
</style>
<path class="st0" d="M138.2,736.8c1,0,1,1.5,0,1.5S137.2,736.8,138.2,736.8z"/>
<path class="st0" d="M229.1,452.2c5.4-15.9,13.4-30.6,20-46c0.4-0.9,1.6-0.1,1.3,0.7c-6.6,15.2-14.5,29.9-19.9,45.6
	C230.2,453.5,228.8,453.1,229.1,452.2z"/>
<path class="st0" d="M4.4,724c1,0,1,1.5,0,1.5C3.5,725.5,3.5,724,4.4,724z"/>
<polygon class="st1" points="51.5,719.5 51.5,730.6 38,726.2 13.3,717.4 0,715.6 0,699.2 25.6,717.4 40.1,723 "/>
<path class="st2" d="M56.4,544.8c0,1.3-0.6,7.5,1,8.6c-0.3,0.9,1.1,1.2,1.4,0.4c1.1-2.6,3.2-4.6,4.5-7c1.1-2,2-4.3,3.8-5.8
	c0.7,0.4,1.3-0.4,1-0.9c0.1-0.3,0-0.7-0.3-0.9c-0.1-3.3,2-7.2,3.4-10.1c0.1-0.1,0.1-0.2,0.1-0.3c4.6,0.5,9.2,3.1,13.1,5.4
	c0.3,0.2,0.6,0.1,0.8-0.1c0.1,0.1,0.3,0.2,0.5,0.2c1,0,1-1.5,0-1.5c-0.1,0-0.2,0-0.3,0.1c-1.8-5.6,0.2-11.5-1.4-17.1
	c-0.3-0.9-1.7-0.5-1.4,0.4c1.5,5.2-0.2,10.6,1,15.9c-3.9-2.2-8.3-4.4-12.7-4.8c-0.5,0-0.7,0.4-0.7,0.8c-0.1,0.1-0.2,0.1-0.3,0.3
	c-1.5,3-3.6,7-3.6,10.5c-3.8-2.5-6.6-6.3-9.8-9.5c0-0.1,0-0.1,0-0.2c0.1-0.9-1.3-1.3-1.4-0.4C54.4,533.9,56.4,539.5,56.4,544.8z
	 M56.5,531.2c3,3.1,5.7,6.6,9.4,9c-1.7,1.7-2.4,3.8-3.8,5.9c-1.4,2-2.9,3.9-4,6c-0.4-1-0.3-10.6-0.3-11.2
	C57.6,537.7,56.5,534.4,56.5,531.2z"/>
<path class="st3" d="M56.5,528.4c0,0-2-2.6-5.6-0.9l7.4,25.4L56.5,528.4z"/>
<polygon class="st4" points="51,527.6 48.4,550.9 58.4,552.9 "/>
<polygon class="st5" points="56.5,528.4 67.2,540.9 58.4,552.9 "/>
<polygon class="st6" points="67.2,540.9 70.9,528.1 56.5,528.4 "/>
<polygon class="st7" points="70.9,528.1 85.9,534.2 67.2,540.9 "/>
<polygon class="st5" points="85.9,534.2 84.3,516 70.9,528.1 "/>
<polygon class="st6" points="84.3,516 91.8,519.2 85.9,534.2 "/>
<polygon class="st8" points="51,527.6 35.5,527.6 47.2,506.2 "/>
<polygon class="st4" points="51,527.6 43.4,545.1 35.5,527.6 "/>
<polygon class="st5" points="54.3,621.6 61.5,644.1 35,653.2 "/>
<polygon class="st9" points="21,634.7 0,629.5 0,639.2 "/>
<polygon class="st10" points="49.9,633.4 54.3,621.6 44.9,621.6 "/>
<polygon class="st8" points="44.9,621.6 34.2,638 33.2,646.1 49.9,633.4 "/>
<polygon class="st11" points="44.9,621.6 21,634.7 34.2,638 "/>
<g>
	<path class="st1" d="M34.2,638L21,634.7l-21,4.5v48.6L10,668l11.3-12.7l13.7-2.1c0,0,13.3-12.8,14.9-19.8l-3.9-2.6
		c0,0-10.1,13.5-12.7,15.3L34.2,638z"/>
	<path class="st12" d="M34.2,638c0,0-28.3,1.2-24.5,30.6L0,674.1v-34.9l21-4.5L34.2,638z"/>
</g>
<polygon class="st5" points="25.6,717.4 37.7,678.7 10.5,706.6 "/>
<polygon class="st13" points="37.7,678.7 0,699.2 10.5,706.6 "/>
<polygon class="st14" points="37.7,678.7 0,687.8 0,699.2 "/>
<polygon class="st13" points="37.7,678.7 9.7,668.5 0,687.8 "/>
<polygon class="st6" points="37.7,678.7 21.3,655.3 9.7,668.5 "/>
<polygon class="st6" points="37.7,678.7 40.1,723 25.6,717.4 "/>
<polygon class="st7" points="37.7,678.7 35,653.2 21.3,655.3 "/>
<polygon class="st7" points="37.7,678.7 40.1,723 64.2,716.7 "/>
<polygon class="st4" points="37.7,678.7 61.5,644.1 35,653.2 "/>
<polygon class="st4" points="37.7,678.7 73,699.2 64.2,716.7 "/>
<polygon class="st7" points="37.7,678.7 79.6,678.2 73,699.2 "/>
<polygon class="st7" points="37.7,678.7 78.3,653.2 61.5,644.1 "/>
<polygon class="st6" points="37.7,678.7 78.3,653.2 79.6,678.2 "/>
<polygon class="st5" points="38,726.2 60.6,761.6 40.8,755.6 "/>
<polygon class="st5" points="40.8,755.6 13.3,717.4 25.1,765.7 "/>
<polygon class="st6" points="13.3,717.4 38,726.2 40.8,755.6 "/>
<polygon class="st7" points="38,726.2 51.5,730.6 60.6,761.6 "/>
<polygon class="st7" points="13.3,717.4 9.7,769 25.1,765.7 "/>
<polygon class="st7" points="40.8,755.6 39,780.2 25.1,765.7 "/>
<polygon class="st4" points="9.7,769 0,715.6 0,782.6 "/>
<polygon class="st4" points="25.1,765.7 19.7,785.7 9.7,769 "/>
<polygon class="st8" points="9.7,769 13.3,717.4 0,715.6 "/>
<polygon class="st8" points="47.2,506.2 48.4,484.2 18.4,469.4 "/>
<polygon class="st8" points="74.4,626 78.3,603.8 92.3,614.7 "/>
<polygon class="st11" points="92.3,614.7 78.3,653.2 74.4,626 "/>
<polygon class="st11" points="18.4,469.4 41.3,451.9 34.9,477.6 "/>
<polygon class="st11" points="98.7,489.3 114.2,528.2 99.8,522.5 "/>
<polygon class="st11" points="98.7,489.3 75.8,461.5 83.7,486.9 "/>
<polygon class="st11" points="92.4,511.9 85.9,500.5 76.6,505 "/>
<polygon class="st10" points="85.9,500.5 66.1,494 76.6,505 "/>
<polygon class="st15" points="66.1,494 58.4,505 76.6,505 "/>
<polygon class="st11" points="66.1,494 47.2,506.2 58.4,505 "/>
<polygon class="st16" points="47.2,506.2 49.4,518.9 58.4,505 "/>
<g>
	<path class="st1" d="M91.8,519.2l0.6-7.4l-18.9-8.1c0,0-16.3-8.1-24.1,15.2l1.5,8.7c0,0,2.4-1.1,5.6,0.8c3.2,1.9,15.6,5,27.8-12.4
		L91.8,519.2z"/>
	<g>
		<path class="st17" d="M65.2,510.8c-5.2,0-9.5,3.4-10.9,8.2c-0.3-1-0.5-2.1-0.5-3.2c0-6.3,5.1-11.4,11.4-11.4s11.4,5.1,11.4,11.4
			c0,1.1-0.2,2.2-0.5,3.2C74.7,514.2,70.4,510.8,65.2,510.8z"/>
		<path class="st18" d="M65.2,527.1c-5.2,0-9.5-3.4-10.9-8.2c1.4-4.7,5.7-8.2,10.9-8.2s9.5,3.4,10.9,8.2
			C74.7,523.7,70.4,527.1,65.2,527.1z"/>
	</g>
	<path class="st19" d="M62.2,513.8c0,1.7,1.4,3,3,3c1.7,0,3-1.4,3-3c0-1.7-1.4-3-3-3C63.5,510.7,62.2,512.1,62.2,513.8z"/>
</g>
<polygon class="st10" points="75.8,461.5 41.3,451.9 38.3,464 "/>
<polygon class="st10" points="98.7,489.3 85.9,500.5 83.7,486.9 "/>
<polygon class="st4" points="98.7,489.3 92.4,511.9 85.9,500.5 "/>
<polygon class="st15" points="98.7,489.3 92.4,511.9 91.8,519.2 99.8,522.5 "/>
<polygon class="st15" points="75.8,461.5 62.2,475.4 83.7,486.9 "/>
<polygon class="st15" points="62.2,475.4 38.3,464 34.9,477.6 "/>
<polygon class="st16" points="62.2,475.4 48.4,484.2 34.9,477.6 "/>
<polygon class="st16" points="62.2,475.4 75.8,461.5 38.3,464 "/>
<polygon class="st20" points="83.7,486.9 66.1,494 85.9,500.5 "/>
<polygon class="st20" points="66.1,494 48.4,484.2 47.2,506.2 "/>
<polygon class="st0" points="66.1,494 62.2,475.4 48.4,484.2 "/>
<polygon class="st21" points="66.1,494 62.2,475.4 83.7,486.9 "/>
<polygon class="st0" points="67.2,540.9 90.2,559.2 58.4,552.9 "/>
<polygon class="st22" points="48.4,550.9 72,580.5 90.2,559.2 "/>
<polygon class="st23" points="90.2,559.2 78.3,603.8 72,580.5 "/>
<polygon class="st9" points="48.4,550.9 74.4,626 78.3,603.8 "/>
<polygon class="st0" points="48.4,550.9 78.3,603.8 72,580.5 "/>
<polygon class="st23" points="114.2,528.2 99.8,575.3 111.3,594.5 "/>
<polygon class="st24" points="85.9,534.2 90.2,559.2 67.2,540.9 "/>
<polygon class="st25" points="91.8,519.2 85.9,534.2 114.2,528.2 "/>
<polygon class="st23" points="85.9,534.2 90.2,559.2 114.2,528.2 "/>
<polygon class="st23" points="90.2,559.2 111.3,594.5 78.3,603.8 "/>
<polygon class="st16" points="78.3,603.8 92.3,614.7 111.3,594.5 "/>
<polygon class="st0" points="111.3,594.5 78.3,653.2 92.3,614.7 "/>
<polygon class="st0" points="114.2,528.2 90.2,559.2 99.8,575.3 "/>
<polygon class="st3" points="18.4,469.4 0,452.3 0,471.8 "/>
<polygon class="st25" points="18.4,469.4 0,494 0,471.8 "/>
<polygon class="st26" points="18.4,469.4 25.8,507.3 0,494 "/>
<polygon class="st26" points="0,452.3 18.4,414.4 0,432.2 "/>
<polygon class="st23" points="18.4,414.4 18.4,469.4 0,452.3 "/>
<polygon class="st23" points="18.4,414.4 12.6,386.9 0,432.2 "/>
<polygon class="st23" points="25.8,507.3 47.2,506.2 35.5,527.6 "/>
<polygon class="st23" points="75.8,461.5 103.9,470.7 98.7,489.3 "/>
<polygon class="st23" points="98.7,489.3 125.8,511.3 114.2,528.2 "/>
<polygon class="st3" points="0,494 0,530.9 11.8,500.1 "/>
<polygon class="st20" points="18.4,414.4 41.3,451.9 18.4,469.4 "/>
<polygon class="st20" points="12.6,386.9 0,397.5 0,432.2 "/>
<polygon class="st20" points="75.8,461.5 84.4,424.2 103.9,470.7 "/>
<polygon class="st0" points="41.3,451.9 45.2,426.2 84.4,424.2 "/>
<polygon class="st15" points="41.3,451.9 45.2,426.2 34.3,407.5 "/>
<polygon class="st15" points="84.4,424.2 41.3,451.9 75.8,461.5 "/>
<polygon class="st15" points="47.2,506.2 25.8,507.3 18.4,469.4 "/>
<polygon class="st20" points="25.8,507.3 0,530.9 11.8,500.1 "/>
<polygon class="st20" points="25.8,507.3 27.7,529.2 35.5,527.6 "/>
<polygon class="st20" points="27.7,529.2 34.8,565.1 43.4,545.1 "/>
<polygon class="st23" points="51,527.6 34.8,565.1 48.4,550.9 "/>
<polygon class="st23" points="48.4,550.9 52,589 34.8,565.1 "/>
<polygon class="st23" points="27.7,529.2 43.4,545.1 35.5,527.6 "/>
<polygon class="st0" points="41.3,451.9 34.3,407.5 18.4,414.4 "/>
<polygon class="st24" points="0,629.5 25.6,616.4 0,606.6 "/>
<polygon class="st27" points="0,606.6 16.5,587.7 0,582.7 "/>
<polygon class="st23" points="16.5,587.7 25.6,616.4 0,606.6 "/>
<polygon class="st23" points="25.6,616.4 21,634.7 0,629.5 "/>
<polygon class="st23" points="16.5,587.7 0,559.2 0,582.7 "/>
<polygon class="st0" points="48.4,550.9 52,589 74.4,626 "/>
<polygon class="st16" points="52,589 54.3,621.6 74.4,626 "/>
<polygon class="st28" points="54.3,621.6 61.5,644.1 74.4,626 "/>
<polygon class="st28" points="54.3,621.6 34.8,565.1 52,589 "/>
<polygon class="st28" points="0,559.2 23.1,556.1 16.5,587.7 "/>
<polygon class="st28" points="25.6,616.4 21,634.7 44.9,621.6 "/>
<polygon class="st21" points="16.5,587.7 34.8,565.1 23.1,556.1 "/>
<polygon class="st21" points="16.5,587.7 25.6,616.4 44.9,621.6 "/>
<polygon class="st15" points="23.1,556.1 27.7,529.2 34.8,565.1 "/>
<polygon class="st16" points="16.5,587.7 54.3,621.6 34.8,565.1 "/>
<polygon class="st16" points="23.1,556.1 0,530.9 0,559.2 "/>
<polygon class="st0" points="0,530.9 27.7,529.2 23.1,556.1 "/>
<polygon class="st0" points="0,530.9 25.8,507.3 27.7,529.2 "/>
<polygon class="st9" points="44.9,621.6 54.3,621.6 16.5,587.7 "/>
<polygon class="st19" points="12.6,386.9 0,348.9 0,397.5 "/>
<polygon class="st19" points="0,348.9 30.8,327 0,310 "/>
<polygon class="st29" points="30.8,327 30.7,326.7 14.7,263.6 0,310 "/>
<polygon class="st29" points="12.6,386.9 0,348.9 30.8,327 "/>
<polygon class="st29" points="18.4,414.4 33.6,369.4 34.3,407.5 "/>
<polygon class="st29" points="34.3,407.5 70.9,385.1 45.2,426.2 "/>
<polygon class="st19" points="12.6,386.9 33.6,369.4 30.8,327 "/>
<polygon class="st19" points="45.2,426.2 110.5,382.8 84.4,424.2 "/>
<polygon class="st30" points="84.4,424.2 142.9,413.8 171.9,489.3 "/>
<polygon class="st19" points="34.3,407.5 33.6,369.4 67.7,332.3 "/>
<polygon class="st31" points="45.2,426.2 110.5,382.8 70.9,385.1 "/>
<polygon class="st31" points="18.4,414.4 12.6,386.9 33.6,369.4 "/>
<polygon class="st31" points="67.7,332.3 70.9,385.1 34.3,407.5 "/>
<polygon class="st31" points="84.4,424.2 154.3,375.9 185.2,406.3 "/>
<polygon class="st31" points="103.9,470.7 134.8,461.5 98.7,489.3 "/>
<polygon class="st31" points="98.7,489.3 125.8,511.3 190.6,528.4 "/>
<polygon class="st31" points="114.2,528.2 190.6,528.4 143.7,567.5 "/>
<polygon class="st17" points="134.8,461.5 132.8,503.8 190.6,528.4 "/>
<polygon class="st17" points="103.9,470.7 84.4,424.2 134.8,461.5 "/>
<polygon class="st17" points="114.2,528.2 111.3,594.5 143.7,567.5 "/>
<polygon class="st30" points="111.3,594.5 79.6,678.2 78.3,653.2 "/>
<polygon class="st17" points="111.3,594.5 176.7,657.4 98.3,628.9 "/>
<polygon class="st32" points="134.8,461.5 98.7,489.3 132.8,503.8 "/>
<polygon class="st32" points="125.8,511.3 114.2,528.2 190.6,528.4 "/>
<polygon class="st33" points="70.9,385.1 110.1,344.5 110.5,382.8 "/>
<polygon class="st32" points="154.3,375.9 184.5,318.1 110.5,382.8 "/>
<polygon class="st17" points="67.7,332.3 110.1,344.5 129.8,271.4 "/>
<polygon class="st25" points="30.8,327 70.4,262.7 66.4,303.2 "/>
<polygon class="st17" points="58.4,282.1 19.4,282.1 30.8,327 "/>
<polygon class="st0" points="173.4,339.2 216.5,372.7 235.8,344.4 "/>
<polygon class="st25" points="216.5,372.7 227.4,453.3 185.2,406.3 "/>
<polygon class="st25" points="154.3,375.9 173.4,339.2 216.5,372.7 "/>
<polygon class="st10" points="230.1,532.9 230.1,654.1 257.8,623.1 "/>
<polygon class="st7" points="230.1,532.9 196.2,611 230.1,602 "/>
<polygon class="st12" points="230.1,532.9 111.3,594.5 190.6,528.4 "/>
<polygon class="st3" points="142.9,413.8 201,481.8 171.9,489.3 "/>
<polygon class="st0" points="230.1,532.9 134.8,461.5 190.6,528.4 "/>
<polygon class="st8" points="230.1,532.9 201.7,547.6 215.5,566.6 "/>
<polygon class="st9" points="230.1,532.9 201,481.8 171.9,489.3 "/>
<polygon class="st9" points="215.5,566.6 174.1,561.9 201.7,547.6 "/>
<polygon class="st11" points="174.1,561.9 196.2,611 215.5,566.6 "/>
<polygon class="st0" points="174.1,561.9 111.3,594.5 196.2,611 "/>
<polygon class="st34" points="111.3,594.5 176.7,657.4 196.2,611 "/>
<polygon class="st0" points="227.4,453.3 201,481.8 230.1,532.9 "/>
<polygon class="st32" points="227.4,453.3 142.9,413.8 185.2,406.3 "/>
<polygon class="st35" points="227.4,453.3 142.9,413.8 201,481.8 "/>
<polygon class="st35" points="227.4,453.3 265.3,537.2 230.1,532.9 "/>
<polygon class="st35" points="216.5,372.7 256,400.1 221.2,407.5 "/>
<polygon class="st0" points="256,400.1 227.4,453.3 221.2,407.5 "/>
<polygon class="st35" points="184.5,318.1 110.1,344.5 110.5,382.8 "/>
<polygon class="st35" points="66.4,303.2 33.6,369.4 30.8,327 "/>
<polygon class="st33" points="66.4,303.2 67.7,332.3 33.6,369.4 "/>
<polygon class="st33" points="154.3,375.9 185.2,406.3 216.5,372.7 "/>
<polygon class="st17" points="110.1,344.5 153.8,297.6 121.9,300.8 "/>
<polygon class="st25" points="66.4,303.2 129.8,271.4 67.7,332.3 "/>
<polygon class="st25" points="70.9,385.1 110.1,344.5 67.7,332.3 "/>
<polygon class="st25" points="110.5,382.8 84.4,424.2 154.3,375.9 "/>
<polygon class="st7" points="196.2,611 230.1,654.1 203.4,689.7 "/>
<polygon class="st7" points="232.9,764.4 174.4,724.4 203.4,689.7 "/>
<polygon class="st4" points="196.2,611 176.7,657.4 203.4,689.7 "/>
<polygon class="st4" points="203.4,689.7 230.1,654.1 250.5,724.8 "/>
<polygon class="st4" points="196.2,611 230.1,602 230.1,654.1 "/>
<polygon class="st10" points="176.7,657.4 174.4,724.4 203.4,689.7 "/>
<polygon class="st4" points="176.7,657.4 157.7,700 174.4,724.4 "/>
<polygon class="st11" points="176.7,657.4 98.3,628.9 157.7,700 "/>
<polygon class="st11" points="257.8,623.1 272,706.3 230.1,654.1 "/>
<polygon class="st11" points="257.8,623.1 278.5,627.1 245,581.5 "/>
<polygon class="st9" points="230.1,532.9 269.1,580.2 245,581.5 "/>
<polygon class="st24" points="98.3,628.9 79.6,678.2 157.7,700 "/>
<polygon class="st36" points="79.6,678.2 133.1,735.4 157.7,700 "/>
<polygon class="st36" points="73,699.2 76.7,750.9 64.2,716.7 "/>
<path class="st36" d="M64.2,716.7"/>
<polygon class="st37" points="76.7,750.9 51.5,730.6 51.5,720 64.2,716.7 "/>
<polygon class="st37" points="79.6,678.2 73,699.2 133.1,735.4 "/>
<polygon class="st3" points="39,780.2 33.9,815.2 19.7,785.7 "/>
<polygon class="st30" points="19.7,785.7 25.1,765.7 39,780.2 "/>
<polygon class="st30" points="39,780.2 33.9,815.2 82,806.8 "/>
<polygon class="st30" points="76.7,750.9 73,699.2 133.1,735.4 "/>
<polygon class="st30" points="157.7,700 133.1,735.4 174.4,724.4 "/>
<polygon class="st3" points="174.4,724.4 148.6,758.4 133.1,735.4 "/>
<polygon class="st37" points="82,806.8 99,880.3 33.9,815.2 "/>
<polygon class="st36" points="33.9,815.2 0,882.4 0,814.6 "/>
<polygon class="st37" points="33.9,815.2 33.9,894 10.9,860.9 "/>
<polygon class="st27" points="133.1,735.4 100.8,779.4 76.7,750.9 "/>
<polygon class="st27" points="19.7,785.7 0,782.6 9.7,769 "/>
<polygon class="st27" points="19.7,785.7 0,814.6 33.9,815.2 "/>
<polygon class="st27" points="33.9,815.2 63.2,844.5 33.9,894 "/>
<polygon class="st3" points="19.7,785.7 0,782.6 0,814.6 "/>
<polygon class="st3" points="40.8,755.6 39,780.2 60.6,761.6 "/>
<polygon class="st3" points="51.5,730.6 60.6,761.6 76.7,750.9 "/>
<polygon class="st3" points="133.1,735.4 134.5,817.6 100.8,779.4 "/>
<polygon class="st25" points="76.7,750.9 82,806.8 60.6,761.6 "/>
<polygon class="st25" points="174.4,724.4 198.3,789.1 148.6,758.4 "/>
<polygon class="st23" points="60.6,761.6 39,780.2 82,806.8 "/>
<polygon class="st23" points="76.7,750.9 82,806.8 100.8,779.4 "/>
<polygon class="st23" points="133.1,735.4 165.3,844.9 134.5,817.6 "/>
<polygon class="st23" points="134.5,817.6 99,880.3 82,806.8 "/>
<polygon class="st28" points="133.1,735.4 175.1,797.7 165.3,844.9 "/>
<polygon class="st28" points="100.8,779.4 82,806.8 134.5,817.6 "/>
<polygon class="st28" points="174.4,724.4 202.2,743.5 198.3,789.1 "/>
<polygon class="st28" points="134.5,817.6 123.4,882.6 109.3,862.1 "/>
<polygon class="st23" points="61.5,644.1 74.4,626 78.3,653.2 "/>
</svg>
