<?xml version="1.0" encoding="utf-8"?>
<!-- Generator: Adobe Illustrator 23.0.6, SVG Export Plug-In . SVG Version: 6.00 Build 0)  -->
<svg version="1.1" id="Calque_1" xmlns="http://www.w3.org/2000/svg" xmlns:xlink="http://www.w3.org/1999/xlink" x="0px" y="0px"
	 viewBox="0 0 496 512" style="enable-background:new 0 0 496 512;" xml:space="preserve">
<style type="text/css">
	.st0{fill:#050708;}
</style>
<path class="st0" d="M83.7,393.3c0-54.9,109.9-85.2,164.8-85.2s164.8,30.2,164.8,85.2v27.5H83.7V393.3z M330.9,173.6
	c0,46.7-35.7,82.4-82.4,82.4s-82.4-35.7-82.4-82.4s35.7-82.4,82.4-82.4S330.9,126.9,330.9,173.6z M1.3,63.7v384.6
	c0,30.2,24.7,54.9,54.9,54.9h384.6c30.2,0,54.9-24.7,54.9-54.9V63.7c0-30.2-24.7-54.9-54.9-54.9H56.2C26,8.8,1.3,33.5,1.3,63.7z"/>
</svg>
