<?xml version="1.0" encoding="utf-8"?>
<!-- Generator: Adobe Illustrator 23.0.6, SVG Export Plug-In . SVG Version: 6.00 Build 0)  -->
<svg version="1.1" id="Calque_1" xmlns="http://www.w3.org/2000/svg" xmlns:xlink="http://www.w3.org/1999/xlink" x="0px" y="0px"
	 viewBox="0 0 496 512" style="enable-background:new 0 0 496 512;" xml:space="preserve">
<path d="M424.5,224.8h-144v-144c0-8.8-7.2-16-16-16h-32c-8.8,0-16,7.2-16,16v144h-144c-8.8,0-16,7.2-16,16v32c0,8.8,7.2,16,16,16
	h144v144c0,8.8,7.2,16,16,16h32c8.8,0,16-7.2,16-16v-144h144c8.8,0,16-7.2,16-16v-32C440.5,231.9,433.3,224.8,424.5,224.8z"/>
</svg>
