<?xml version="1.0" encoding="utf-8"?>
<!-- Generator: Adobe Illustrator 23.0.3, SVG Export Plug-In . SVG Version: 6.00 Build 0)  -->
<svg version="1.1" id="Calque_1" xmlns="http://www.w3.org/2000/svg" xmlns:xlink="http://www.w3.org/1999/xlink" x="0px" y="0px"
	 viewBox="0 0 496 512" style="enable-background:new 0 0 496 512;" xml:space="preserve">
<path d="M244.4,255.6c5.3-14.7,12.7-28.3,22-40.5c-5.7,2.3-11.9,3.6-18.4,3.6c-27.4,0-49.6-22.2-49.6-49.6s22.2-49.6,49.6-49.6
	s49.6,22.2,49.6,49.6c0,6.5-1.3,12.7-3.6,18.4c12.2-9.3,25.7-16.8,40.5-22c-1.9-46.3-39.6-83.2-86.3-83.2c-48,0-86.8,38.8-86.8,86.8
	C161.2,215.9,198.2,253.7,244.4,255.6z M74.4,231.2c34.3,0,62-27.7,62-62s-27.7-62-62-62s-62,27.7-62,62S40.1,231.2,74.4,231.2z
	 M74.4,144.4c13.6,0,24.8,11.2,24.8,24.8c0,13.6-11.2,24.8-24.8,24.8s-24.8-11.2-24.8-24.8C49.6,155.5,60.8,144.4,74.4,144.4z
	 M263.8,392.4H136.4v-34.7c0-28.2,22.6-51.3,50.7-52.1c16,6.7,32.5,10.5,49.1,11.8c-0.5-7.2-1.6-18.6,1.8-37.7
	c-13-1.2-25.7-3.8-37.2-8.7c-4-1.6-8.1-2.6-12.3-2.6c-49.3,0-89.3,40-89.3,89.3v34.7c0,20.5,16.7,37.2,37.2,37.2h165.9
	C287.2,419.6,274.2,407,263.8,392.4z M120,267.1c-10.4-7-22.9-11.1-36.3-11.1H65.1C29.2,256,0,285.2,0,321.1
	c0,10.2,8.4,18.6,18.6,18.6s18.6-8.4,18.6-18.6c0-15.3,12.6-27.9,27.9-27.9h18.6c3.4,0,6.6,0.9,9.5,1.9
	C100.5,284.3,109.6,274.9,120,267.1z M473.2,322.1c2-10.9,2-22.1,0-33l20-11.5c2.3-1.3,3.3-4,2.6-6.6c-5.2-16.7-14.1-31.9-25.7-44.5
	c-1.8-1.9-4.7-2.4-7-1.1l-20,11.5c-8.4-7.2-18.1-12.8-28.6-16.5v-23.1c0-2.6-1.9-5-4.4-5.5c-17.3-3.9-34.9-3.7-51.3,0
	c-2.6,0.5-4.4,2.9-4.4,5.5v23.1c-10.5,3.7-20.2,9.3-28.6,16.5l-20-11.5c-2.2-1.3-5.2-0.9-7,1.1C287.1,239,278.2,254.2,273,271
	c-0.8,2.6,0.3,5.3,2.6,6.6l20,11.5c-2,10.9-2,22.1,0,33l-20,11.5c-2.3,1.3-3.3,4-2.6,6.6c5.2,16.7,14.1,31.9,25.7,44.5
	c1.8,1.9,4.7,2.4,7,1.1l20-11.5c8.4,7.2,18.1,12.8,28.6,16.5v23.1c0,2.6,1.9,5,4.4,5.5c17.3,3.9,34.9,3.7,51.3,0
	c2.6-0.5,4.4-2.9,4.4-5.5v-23.1c10.5-3.7,20.2-9.3,28.6-16.5l20,11.5c2.2,1.3,5.2,0.9,7-1.1c11.6-12.6,20.5-27.7,25.7-44.5
	c0.8-2.6-0.3-5.3-2.6-6.6L473.2,322.1z M384.4,343.2c-20.8,0-37.6-16.9-37.6-37.6c0-20.7,16.9-37.6,37.6-37.6
	c20.7,0,37.6,16.9,37.6,37.6C422,326.3,405.2,343.2,384.4,343.2z"/>
</svg>
