<?xml version="1.0" encoding="utf-8"?>
<!-- Generator: Adobe Illustrator 23.0.1, SVG Export Plug-In . SVG Version: 6.00 Build 0)  -->
<svg version="1.1" id="Calque_1" xmlns="http://www.w3.org/2000/svg" xmlns:xlink="http://www.w3.org/1999/xlink" x="0px" y="0px"
	 viewBox="0 0 512 512" style="enable-background:new 0 0 512 512;" xml:space="preserve">
<path d="M360.5,412.2l-96.1,96.3c-4.7,4.7-12.3,4.7-17,0l-96.1-96.3c-4.7-4.7-4.7-12.3,0-17l19.6-19.6c4.8-4.8,12.5-4.7,17.1,0.2
	l41.8,45h2V280H91.2v2l45,41.8c4.8,4.7,4.9,12.4,0.2,17.1l-19.6,19.6c-4.7,4.7-12.3,4.7-17,0L3.5,264.5c-4.7-4.7-4.7-12.3,0-17
	l96.3-96.1c4.7-4.7,12.3-4.7,17,0l19.6,19.6c4.8,4.8,4.7,12.5-0.2,17.1l-45,41.8v2H232V91.2h-2l-41.8,45c-4.7,4.8-12.4,4.9-17.1,0.2
	l-19.6-19.6c-4.7-4.7-4.7-12.3,0-17l96.1-96.3c4.7-4.7,12.3-4.7,17,0l96.1,96.3c4.7,4.7,4.7,12.3,0,17l-19.6,19.6
	c-4.8,4.8-12.5,4.7-17.1-0.2l-41.8-45h-2V232h140.8v-2l-45-41.8c-4.8-4.7-4.9-12.4-0.2-17.1l19.6-19.6c4.7-4.7,12.3-4.7,17,0
	l96.3,96.1c4.7,4.7,4.7,12.3,0,17l-96.3,96.1c-4.7,4.7-12.3,4.7-17,0l-19.6-19.6c-4.8-4.8-4.7-12.5,0.2-17.1l45-41.8v-2H280v140.8h2
	l41.8-45c4.7-4.8,12.4-4.9,17.1-0.2l19.6,19.6C365.2,399.9,365.2,407.5,360.5,412.2L360.5,412.2z"/>
</svg>
