<?xml version="1.0" encoding="utf-8"?>
<!-- Generator: Adobe Illustrator 23.0.3, SVG Export Plug-In . SVG Version: 6.00 Build 0)  -->
<svg version="1.1" id="Calque_1" xmlns="http://www.w3.org/2000/svg" xmlns:xlink="http://www.w3.org/1999/xlink" x="0px" y="0px"
	 viewBox="0 0 496 512" style="enable-background:new 0 0 496 512;" xml:space="preserve">
<path d="M468.5,194.8V63.1c0-7.5-6-27.6-27.5-27.6h0c-6.1,0-12.2,2-17.2,6l-73.2,58.6c-36.8,29.4-83,45.6-130,45.6H55.1
	C24.7,145.8,0,170.4,0,200.9v82.7c0,30.4,24.7,55.1,55.1,55.1l-0.4,27.6c0,34.2,8,66.6,22,95.5c4.5,9.2,14.2,14.7,24.5,14.7h91.5
	c22.4,0,35.9-25.7,22.3-43.5c-14.1-18.5-22.5-41.6-22.5-66.7c0-9.6,1.4-18.8,3.8-27.6h24.2c47.1,0,93.2,16.2,130,45.6l73.2,58.6
	c4.9,3.9,11,6,17.2,6c21.5,0,27.6-19.6,27.6-27.6V289.7c16.4-9.5,27.6-27.1,27.6-47.5C496,221.9,484.9,204.3,468.5,194.8z
	 M110,435.1c-9.3-21.9-14-45-14-68.9c0-12.2,1.5-21.8,2.2-27.6h55.9c-1.8,9.2-3,18.4-3,27.6c0,24.3,5.7,47.7,16.5,68.9H110z
	 M206.7,297.3H55.1c-7.6,0-13.8-6.2-13.8-13.8v-82.7c0-7.6,6.2-13.8,13.8-13.8h151.6V297.3z M427.1,392.7L376.3,352
	c-36.9-29.5-81.6-47.7-128.3-52.9V185.4c46.6-5.2,91.4-23.4,128.3-52.9l50.8-40.7V392.7z"/>
</svg>
