<?xml version="1.0" encoding="utf-8"?>
<!-- Generator: Adobe Illustrator 23.0.3, SVG Export Plug-In . SVG Version: 6.00 Build 0)  -->
<svg version="1.1" id="Calque_1" xmlns="http://www.w3.org/2000/svg" xmlns:xlink="http://www.w3.org/1999/xlink" x="0px" y="0px"
	 viewBox="0 0 496 512" style="enable-background:new 0 0 496 512;" xml:space="preserve">
<path d="M426.2,14.3l-403,232.4c-33.3,19.3-30.1,68.6,5.5,83.2l110.7,45.8v81.8c0,44.9,57.3,63.4,83.9,27.7l42.4-57.2l108.4,44.8
	c5.7,2.3,11.7,3.5,17.7,3.5c7.9,0,15.8-2,22.9-6c12.4-7,20.9-19.4,23.2-33.4l57.5-375.1C501.3,22.8,459.7-5,426.2,14.3L426.2,14.3z
	 M185.9,457.5v-62.6l35.5,14.6L185.9,457.5z M391.9,429.7l-149-61.5l135.8-196c10.4-15-9.2-32.5-23-20.5L150.9,330.2L46.5,287
	l403-232.5L391.9,429.7z"/>
</svg>
