<?xml version="1.0" encoding="utf-8"?>
<!-- Generator: Adobe Illustrator 23.0.1, SVG Export Plug-In . SVG Version: 6.00 Build 0)  -->
<svg version="1.1" id="Calque_1" xmlns="http://www.w3.org/2000/svg" xmlns:xlink="http://www.w3.org/1999/xlink" x="0px" y="0px"
	 viewBox="0 0 496 512" enable-background="new 0 0 496 512" xml:space="preserve">
<path d="M466.8,226.1c-7.5-108.9-94.5-196-203.5-203.5c-0.3,0-0.6,0-0.9,0c-7.9,0-14.4,6.8-14.4,14.8v204h204
	C460.4,241.4,467.4,234.4,466.8,226.1L466.8,226.1z M291.8,197.6V71.4C353.4,87.3,402.1,136,418,197.6H291.8z M204.2,285.2V68.8
	c0-8.1-6.5-14.8-14.4-14.8c-0.6,0-1.3,0-1.9,0.1C79.3,69.5-3.7,164.5,0.1,278.2c3.9,115.9,103.1,211.2,218.8,211.2
	c0.9,0,1.8,0,2.7,0c46-0.6,88.4-15.4,123.3-40.1c7.2-5.1,7.7-15.7,1.4-22L204.2,285.2z M221,445.6l-2.1,0
	c-91.8,0-171.9-77.4-175.1-168.9c-2.7-77.9,45.7-146.2,116.6-171v197.6l12.8,12.8l115.1,115.1C267.3,440.4,244.5,445.3,221,445.6z
	 M481.2,285.2H264.9L409,429.3c2.9,2.9,6.8,4.4,10.6,4.4c3.5,0,6.9-1.2,9.6-3.8c35.3-33.2,59.6-78.1,66.7-128.4
	C497.1,292.8,489.9,285.2,481.2,285.2L481.2,285.2z"/>
</svg>
