<?xml version="1.0" encoding="utf-8"?>
<!-- Generator: Adobe Illustrator 23.0.3, SVG Export Plug-In . SVG Version: 6.00 Build 0)  -->
<svg version="1.1" id="Calque_1" xmlns="http://www.w3.org/2000/svg" xmlns:xlink="http://www.w3.org/1999/xlink" x="0px" y="0px"
	 viewBox="0 0 496 512" style="enable-background:new 0 0 496 512;" xml:space="preserve">
<path d="M295.6,256l107.7-107.7c6.2-6.2,6.2-16.3,0-22.6l-25-25c-6.2-6.2-16.3-6.2-22.6,0L248,208.4L140.3,100.7
	c-6.2-6.2-16.3-6.2-22.6,0l-25,25c-6.2,6.2-6.2,16.3,0,22.6L200.4,256L92.7,363.7c-6.2,6.2-6.2,16.3,0,22.6l25,25
	c6.2,6.2,16.3,6.2,22.6,0L248,303.6l107.7,107.7c6.2,6.2,16.3,6.2,22.6,0l25-25c6.2-6.2,6.2-16.3,0-22.6L295.6,256z"/>
</svg>
