<?xml version="1.0" encoding="utf-8"?>
<!-- Generator: Adobe Illustrator 23.0.3, SVG Export Plug-In . SVG Version: 6.00 Build 0)  -->
<svg version="1.1" id="Calque_1" xmlns="http://www.w3.org/2000/svg" xmlns:xlink="http://www.w3.org/1999/xlink" x="0px" y="0px"
	 viewBox="0 0 496 512" style="enable-background:new 0 0 496 512;" xml:space="preserve">
<path d="M421.4,212.7c-3.1-44.9-40.5-80.7-86.6-80.7c-5.9,0-11.7,0.6-17.4,1.8c-24.7-31-63.2-51.4-106.6-51.4
	c-65.6,0-120.5,46.3-133.5,108.3C30.9,209.6,0,254.8,0,305.6c0,68.5,55.5,124,124,124h260.4c61.6,0,111.6-50,111.6-111.6
	C496,270.1,465.6,228.3,421.4,212.7z M384.4,392.4H124c-48,0-86.8-38.8-86.8-86.8c0-43.7,32.3-79.9,74.4-85.9v-0.9
	c0-54.8,44.4-99.2,99.2-99.2c41.5,0,77,25.4,91.8,61.5c8.7-7.4,19.9-11.9,32.2-11.9c27.4,0,49.6,22.2,49.6,49.6
	c0,9.1-2.5,17.7-6.8,25.1c2.2-0.2,4.6-0.3,6.8-0.3c41.1,0,74.4,33.3,74.4,74.4S425.5,392.4,384.4,392.4z"/>
</svg>
