<?xml version="1.0" encoding="utf-8"?>
<!-- Generator: Adobe Illustrator 23.0.3, SVG Export Plug-In . SVG Version: 6.00 Build 0)  -->
<svg version="1.1" id="Calque_1" xmlns="http://www.w3.org/2000/svg" xmlns:xlink="http://www.w3.org/1999/xlink" x="0px" y="0px"
	 viewBox="0 0 496 512" style="enable-background:new 0 0 496 512;" xml:space="preserve">
<path d="M434,8H62C27.8,8,0,35.8,0,70v279c0,34.2,27.8,62,62,62h93v81.4c0,6.9,5.6,11.6,11.6,11.6c2.3,0,4.7-0.7,6.9-2.3l121-90.7
	H434c34.2,0,62-27.8,62-62V70C496,35.8,468.2,8,434,8z M449.5,349c0,8.5-7,15.5-15.5,15.5H279l-12.4,9.3l-65.1,48.8v-58.1H62
	c-8.5,0-15.5-7-15.5-15.5V70c0-8.5,7-15.5,15.5-15.5h372c8.5,0,15.5,7,15.5,15.5V349z M124,178.5c-17.1,0-31,13.9-31,31
	s13.9,31,31,31s31-13.9,31-31S141.1,178.5,124,178.5z M248,178.5c-17.1,0-31,13.9-31,31s13.9,31,31,31s31-13.9,31-31
	S265.1,178.5,248,178.5z M372,178.5c-17.1,0-31,13.9-31,31s13.9,31,31,31s31-13.9,31-31S389.1,178.5,372,178.5z"/>
</svg>
