<?xml version="1.0" encoding="utf-8"?>
<!-- Generator: Adobe Illustrator 23.0.1, SVG Export Plug-In . SVG Version: 6.00 Build 0)  -->
<svg version="1.1" id="Calque_1" xmlns="http://www.w3.org/2000/svg" xmlns:xlink="http://www.w3.org/1999/xlink" x="0px" y="0px"
	 viewBox="0 0 496 512" style="enable-background:new 0 0 496 512;" xml:space="preserve">
<g>
	<path d="M248,8C111.6,8,0,119.6,0,256s111.6,248,248,248s248-111.6,248-248S384.4,8,248,8z M248,454.4
		c-109.1,0-198.4-89.3-198.4-198.4S138.9,57.6,248,57.6S446.4,146.9,446.4,256S357.1,454.4,248,454.4z"/>
	<path d="M267.8,280.8l7.4,39.7c0,0-67-39.7-67-67c0-24.8,67-67,67-67l-7.4,39.7h79.4c-2.5-42.2-34.7-67-74.4-74.4V99.8h-49.6v54.6
		c-47.1,12.4-74.4,52.1-74.4,104.2c0,49.6,29.8,89.3,74.4,99.2v52.1h49.6v-52.1c39.7-7.4,67-34.7,74.4-79.4L267.8,280.8L267.8,280.8
		z"/>
</g>
</svg>
