<?xml version="1.0" encoding="utf-8"?>
<!-- Generator: Adobe Illustrator 23.0.3, SVG Export Plug-In . SVG Version: 6.00 Build 0)  -->
<svg version="1.1" id="Calque_1" xmlns="http://www.w3.org/2000/svg" xmlns:xlink="http://www.w3.org/1999/xlink" x="0px" y="0px"
	 viewBox="0 0 496 512" style="enable-background:new 0 0 496 512;" xml:space="preserve">
<path d="M454.7,35.6H41.3C18.5,35.6,0,54.1,0,76.9v248c0,22.8,18.5,41.3,41.3,41.3h413.3c22.8,0,41.3-18.5,41.3-41.3v-248
	C496,54.1,477.5,35.6,454.7,35.6z M449.5,324.9h-403c-2.8,0-5.2-2.3-5.2-5.2V82.1c0-2.8,2.3-5.2,5.2-5.2h403c2.8,0,5.2,2.3,5.2,5.2
	v237.7C454.7,322.6,452.3,324.9,449.5,324.9z M413.3,455.8c0,11.5-9.2,20.7-20.7,20.7H103.3c-11.5,0-20.7-9.2-20.7-20.7
	s9.2-20.7,20.7-20.7h85l16-48c1.4-4.2,5.3-7.1,9.8-7.1h67.8c4.5,0,8.4,2.8,9.8,7.1l16,48h84.9C404.1,435.1,413.3,444.3,413.3,455.8z
	"/>
</svg>
