<?xml version="1.0" encoding="utf-8"?>
<!-- Generator: Adobe Illustrator 23.0.3, SVG Export Plug-In . SVG Version: 6.00 Build 0)  -->
<svg version="1.1" id="Calque_1" xmlns="http://www.w3.org/2000/svg" xmlns:xlink="http://www.w3.org/1999/xlink" x="0px" y="0px"
	 viewBox="0 0 496 512" style="enable-background:new 0 0 496 512;" xml:space="preserve">
<path d="M346.4,332.6L374,305c4.3-4.3,11.8-1.3,11.8,4.9v125.2c0,22.8-18.5,41.3-41.3,41.3H41.3C18.5,476.5,0,458,0,435.1V132
	c0-22.8,18.5-41.3,41.3-41.3h235.5c6.1,0,9.2,7.4,4.9,11.8L254.2,130c-1.3,1.3-3,2-4.9,2h-208v303.1h303.1v-97.7
	C344.5,335.6,345.1,333.9,346.4,332.6z M481.3,158.8L255.2,384.9l-77.8,8.6c-22.6,2.5-41.8-16.5-39.3-39.3l8.6-77.8L372.8,50.3
	c19.7-19.7,51.6-19.7,71.2,0l37.2,37.2C500.9,107.2,500.9,139.2,481.3,158.8L481.3,158.8z M396.2,185.4l-50-50l-160,160.1l-6.3,56.2
	l56.2-6.3L396.2,185.4z M452,116.8l-37.2-37.2c-3.5-3.5-9.3-3.5-12.7,0l-26.6,26.6l50,50l26.6-26.6C455.5,126,455.5,120.3,452,116.8
	z"/>
</svg>
