<?xml version="1.0" encoding="utf-8"?>
<!-- Generator: Adobe Illustrator 23.0.1, SVG Export Plug-In . SVG Version: 6.00 Build 0)  -->
<svg version="1.1" id="Calque_1" xmlns="http://www.w3.org/2000/svg" xmlns:xlink="http://www.w3.org/1999/xlink" x="0px" y="0px"
	 viewBox="0 0 512 512" style="enable-background:new 0 0 512 512;" xml:space="preserve">
<path d="M393.3,32h-136c-10.7,0-16,12.9-8.5,20.5l48.2,48.2l-70.8,70.8c-4.7,4.7-4.7,12.3,0,17l22.6,22.6c4.7,4.7,12.3,4.7,17,0
	l70.8-70.8l48.2,48.2c7.5,7.5,20.5,2.2,20.5-8.5V44C405.3,37.4,400,32,393.3,32z"/>
<path d="M416,304l-87.5-87.5c-4.7-4.7-12.3-4.7-17,0L192,336l-39.5-39.5c-4.7-4.7-12.3-4.7-17,0L96,336v48h320V304z"/>
<path d="M464,96h-18.2v48H458c3.3,0,6,2.7,6,6v276c0,3.3-2.7,6-6,6H54c-3.3,0-6-2.7-6-6V150c0-3.3,2.7-6,6-6h147l43.3-43.3l-4.7-4.7
	H48c-26.5,0-48,21.5-48,48v288c0,26.5,21.5,48,48,48h416c26.5,0,48-21.5,48-48V144C512,117.5,490.5,96,464,96z"/>
<circle cx="128" cy="224" r="40"/>
<polygon points="360.6,144 368,144 364.3,140.3 "/>
</svg>
