<?xml version="1.0" encoding="utf-8"?>
<!-- Generator: Adobe Illustrator 23.0.3, SVG Export Plug-In . SVG Version: 6.00 Build 0)  -->
<svg version="1.1" id="Calque_1" xmlns="http://www.w3.org/2000/svg" xmlns:xlink="http://www.w3.org/1999/xlink" x="0px" y="0px"
	 viewBox="0 0 496 512" style="enable-background:new 0 0 496 512;" xml:space="preserve">
<path d="M388.6,331.5l-48-139c-3.5-10.2-9.4-19.4-17.4-26.6c15.4-17.6,24.8-40.6,24.8-65.8C348,44.9,303.1,0,248,0S148,44.9,148,100
	c0,25.2,9.4,48.2,24.8,65.8c-7.9,7.3-13.9,16.4-17.4,26.6l-47.9,138.7C93.2,374,124.9,416,168,416l0,32c0,35.3,28.7,64,64,64h32
	c35.3,0,64-28.7,64-64l0-32C372,415.8,402.5,373.1,388.6,331.5z M248,48c28.7,0,52,23.3,52,52s-23.3,52-52,52s-52-23.3-52-52
	S219.3,48,248,48z M327.6,368H280v80c0,8.8-7.2,16-16,16h-32c-8.8,0-16-7.2-16-16v-80h-48c-10.5,0-18.8-10.2-15.1-21.4L200.8,208
	c2.2-6.5,8.3-10.9,15.2-10.9h7.9c15.8,3.9,32.4,3.9,48.2,0h7.9c6.9,0,13,4.4,15.2,10.9l48,138.9C346.5,356.9,339.4,368,327.6,368z"
	/>
</svg>
