<?xml version="1.0" encoding="utf-8"?>
<!-- Generator: Adobe Illustrator 23.0.3, SVG Export Plug-In . SVG Version: 6.00 Build 0)  -->
<svg version="1.1" id="Calque_1" xmlns="http://www.w3.org/2000/svg" xmlns:xlink="http://www.w3.org/1999/xlink" x="0px" y="0px"
	 viewBox="0 0 496 512" style="enable-background:new 0 0 496 512;" xml:space="preserve">
<path d="M425.9,97.9L342,14c-9-9-21.2-14.1-33.9-14.1H104C77.5,0,56,21.5,56,48v416c0,26.5,21.5,48,48,48h288c26.5,0,48-21.5,48-48
	V131.9C440,119.2,434.9,106.9,425.9,97.9z M388.1,128H312V51.9L388.1,128z M104,464V48h160v104c0,13.3,10.7,24,24,24h104v288H104z
	 M316,224h-28.8c-4.4,0-8.4,2.4-10.5,6.3c-18,33.1-22.2,42.4-28.6,57.7c-13.9-29.1-6.9-17.3-28.6-57.7c-2.1-3.9-6.2-6.3-10.6-6.3
	H180c-9.3,0-15,10-10.4,18l46.3,78l-46.3,78c-4.7,8,1.1,18,10.4,18h28.9c4.4,0,8.4-2.4,10.5-6.3c21.7-40,23-45,28.6-57.7
	c14.9,30.2,5.9,15.9,28.6,57.7c2.1,3.9,6.2,6.3,10.6,6.3H316c9.3,0,15-10,10.4-18L280,320c0.7-1.1,30.3-50.5,46.3-78
	C331,234,325.2,224,316,224z"/>
</svg>
