<?xml version="1.0" encoding="utf-8"?>
<!-- Generator: Adobe Illustrator 23.0.6, SVG Export Plug-In . SVG Version: 6.00 Build 0)  -->
<svg version="1.1" id="Calque_1" xmlns="http://www.w3.org/2000/svg" xmlns:xlink="http://www.w3.org/1999/xlink" x="0px" y="0px"
	 viewBox="0 0 496 512" style="enable-background:new 0 0 496 512;" xml:space="preserve">
<path d="M338.1,304.8c-28.7,0-42.5,16-89.6,16s-60.8-16-89.6-16c-74.2,0-134.4,60.2-134.4,134.4v25.6c0,26.5,21.5,48,48,48h352
	c26.5,0,48-21.5,48-48v-25.6C472.5,365,412.3,304.8,338.1,304.8z M424.5,464.8h-352v-25.6c0-47.6,38.8-86.4,86.4-86.4
	c14.6,0,38.3,16,89.6,16c51.7,0,74.9-16,89.6-16c47.6,0,86.4,38.8,86.4,86.4V464.8z M248.5,288.8c79.5,0,144-64.5,144-144
	s-64.5-144-144-144s-144,64.5-144,144S169,288.8,248.5,288.8z M248.5,48.8c52.9,0,96,43.1,96,96s-43.1,96-96,96s-96-43.1-96-96
	S195.6,48.8,248.5,48.8z"/>
</svg>
