<?xml version="1.0" encoding="utf-8"?>
<!-- Generator: Adobe Illustrator 23.0.1, SVG Export Plug-In . SVG Version: 6.00 Build 0)  -->
<svg version="1.1" id="Calque_1" xmlns="http://www.w3.org/2000/svg" xmlns:xlink="http://www.w3.org/1999/xlink" x="0px" y="0px"
	 viewBox="0 0 448 512" style="enable-background:new 0 0 448 512;" xml:space="preserve">
<path d="M229,227l0-95c0-21.4,25.9-32.1,41-17l27.7,27.7L404.9,35.5c4.7-4.7,12.3-4.7,17,0l22.6,22.6c4.7,4.7,4.7,12.3,0,17
	L337.2,182.4l27.7,27.7c15.1,15.1,4.4,41-17,41l-95,0C239.7,251,229,240.3,229,227z"/>
<path d="M3.5,453.9c-4.7-4.7-4.7-12.3,0-17h0l107.2-107.2L83,301.9c-15.1-15.1-4.4-41,17-41h95c13.3,0,24,10.7,24,24v95
	c0,21.4-25.9,32.1-41,17l-27.7-27.7L43.1,476.5c-4.7,4.7-12.3,4.7-17,0L3.5,453.9z"/>
</svg>
