<?xml version="1.0" encoding="utf-8"?>
<!-- Generator: Adobe Illustrator 23.0.1, SVG Export Plug-In . SVG Version: 6.00 Build 0)  -->
<svg version="1.1" id="Calque_1" xmlns="http://www.w3.org/2000/svg" xmlns:xlink="http://www.w3.org/1999/xlink" x="0px" y="0px"
	 viewBox="0 0 448 512" style="enable-background:new 0 0 448 512;" xml:space="preserve">
<path d="M347.2,155.7c-26.1,0-52.3,11.2-70.9,28l-28,24.3l-9.3,7.5c-1.9,3.7-3.7,5.6-3.7,11.2c0,11.2,9.3,20.5,20.5,20.5
	c3.7,0,5.6,0,7.5-1.9l7.5-7.5l29.9-26.1c11.2-11.2,28-18.7,44.8-18.7c35.5,0,63.5,28,63.5,63.5s-28,63.5-63.5,63.5
	c-16.8,0-33.6-5.6-44.8-18.7L252,256.5l-28-24.3l-52.3-46.7c-18.7-18.7-44.8-29.9-70.9-29.9C44.8,155.7,0,200.5,0,256.5
	s44.8,100.8,100.8,100.8c26.1,0,52.3-11.2,70.9-28l28-26.1l7.5-7.5c1.9-3.7,3.7-7.5,3.7-11.2c0-11.2-9.3-18.7-18.7-18.7
	c-3.7,0-5.6,0-9.3,1.9l-7.5,7.5l-29.9,26.1c-11.2,11.2-28,18.7-44.8,18.7c-35.5,0-63.5-28-63.5-63.5s28-63.5,63.5-63.5
	c16.8,0,33.6,5.6,44.8,18.7l50.4,42.9l28,24.3l52.3,46.7c18.7,18.7,44.8,29.9,70.9,29.9c56,0,100.8-44.8,100.8-100.8
	C448,200.5,403.2,155.7,347.2,155.7z"/>
</svg>
