<?xml version="1.0" encoding="utf-8"?>
<!-- Generator: Adobe Illustrator 23.0.1, SVG Export Plug-In . SVG Version: 6.00 Build 0)  -->
<svg version="1.1" id="Calque_1" xmlns="http://www.w3.org/2000/svg" xmlns:xlink="http://www.w3.org/1999/xlink" x="0px" y="0px"
	 viewBox="0 0 512 512" style="enable-background:new 0 0 512 512;" xml:space="preserve">
<path d="M396.1,115.9c-10.8-10.8-23-19.5-36-26c-4.6-2.3-10.1-1.3-13.8,2.3l-4.4,4.4c-8.5,8.5-13.5,19.3-14.8,30.4
	c-0.6,5.1,1.9,10.1,6.6,12.3c8.5,4.1,16.2,9.6,22.8,16.2c32.8,32.8,32.7,86.1,0,118.8l-75.2,75.2c-32.9,32.9-86,32.8-118.8,0
	c-32.9-32.9-32.8-86,0-118.8l45.8-45.8c2.9-2.9,4.2-7.2,3.2-11.2c-3-12.4-4.6-25.1-4.7-37.8c-0.2-10.5-13-15.6-20.5-8.2
	c-11.6,11.6-30.6,30.7-63.4,63.5c-54.7,54.7-54.7,143.3,0,198c54.7,54.7,143.3,54.7,198,0c82.2-82.2,78.7-78.3,84.9-86
	C450.4,248.2,447.1,167,396.1,115.9L396.1,115.9z"/>
</svg>
