<?xml version="1.0" encoding="utf-8"?>
<!-- Generator: Adobe Illustrator 23.0.1, SVG Export Plug-In . SVG Version: 6.00 Build 0)  -->
<svg version="1.1" id="Calque_1" xmlns="http://www.w3.org/2000/svg" xmlns:xlink="http://www.w3.org/1999/xlink" x="0px" y="0px"
	 viewBox="0 0 496 512" style="enable-background:new 0 0 496 512;" xml:space="preserve">
<path d="M0,85.5v341C0,452.2,20.8,473,46.5,473h403c25.7,0,46.5-20.8,46.5-46.5v-341c0-25.7-20.8-46.5-46.5-46.5h-403
	C20.8,39,0,59.8,0,85.5z M457.3,302.5H191.2v-93h266.1V302.5z M457.3,341.3v81.4c0,6.4-5.2,11.6-11.6,11.6H191.2v-93H457.3z
	 M38.8,209.5h113.7v93H38.8V209.5z M191.2,170.8v-93h254.5c6.4,0,11.6,5.2,11.6,11.6v81.4H191.2z M152.4,77.8v93H38.8V89.4
	c0-6.4,5.2-11.6,11.6-11.6H152.4L152.4,77.8z M38.8,341.3h113.7v93h-102c-6.4,0-11.6-5.2-11.6-11.6v-81.4H38.8z"/>
</svg>
