<?xml version="1.0" encoding="utf-8"?>
<!-- Generator: Adobe Illustrator 23.0.3, SVG Export Plug-In . SVG Version: 6.00 Build 0)  -->
<svg version="1.1" id="Calque_1" xmlns="http://www.w3.org/2000/svg" xmlns:xlink="http://www.w3.org/1999/xlink" x="0px" y="0px"
	 viewBox="0 0 496 512" style="enable-background:new 0 0 496 512;" xml:space="preserve">
<path d="M0,0h496v54.2H0V0z M0,110.7h496v54.2H0V110.7z M0,221.4h496v54.2H0V221.4z"/>
<g>
	<path d="M96.2,425.5h-0.5l-9.4,18.9l-25.1,45.5l-24.6-45.2l-9.7-20.1h-0.5V510H0V381.5h29.6l31.6,60.1h0.2l31.1-60.1h29.8V510H96.2
		V425.5z"/>
	<path d="M150.8,509.8V381.3h87.5v24.8h-59.4v26.1h50.9v24.8h-50.9v27.8h59.4v24.8H150.8z"/>
	<path d="M301.7,449.1l-12.4-25.8h-0.5v86.5h-26.1V381.3h30.6l35.3,60.6l12.4,25.8h0.5v-86.5h26.3v128.5h-30.6L301.7,449.1z"/>
	<path d="M422.4,381.3v78.8c0,9.2,1.7,15.9,5.2,20.4c3.5,4.5,9.4,6.7,17.9,6.7s14.4-2.2,17.9-6.7s5.2-11.2,5.2-20.4v-78.8H496v75.8
		c0,9.4-1,17.6-2.7,24.6c-1.7,7-4.7,12.7-8.7,17.1c-4,4.5-9.2,7.7-15.7,9.9s-14.2,3.2-23.4,3.2c-9.2,0-16.9-1-23.4-3.2
		c-6.5-2.2-11.7-5.5-15.7-9.9c-4-4.5-7-10.2-8.7-17.1c-1.7-7-2.7-15.2-2.7-24.6v-75.8H422.4z"/>
</g>
</svg>
