<?xml version="1.0" encoding="utf-8"?>
<!-- Generator: Adobe Illustrator 23.0.2, SVG Export Plug-In . SVG Version: 6.00 Build 0)  -->
<svg version="1.1" id="Calque_1" xmlns="http://www.w3.org/2000/svg" xmlns:xlink="http://www.w3.org/1999/xlink" x="0px" y="0px"
	 viewBox="0 0 496 512" style="enable-background:new 0 0 496 512;" xml:space="preserve">
<g>
	<path d="M209.3,392.9c16.4,16.4,44.3,4.8,44.3-18.4V271.7c0-14.3-11.6-26-26-26H124.9c-23.1,0-34.7,28-18.4,44.3l30,30L15.1,441.5
		c-5.1,5.1-5.1,13.3,0,18.4l24.5,24.5c5.1,5.1,13.3,5.1,18.4,0l121.4-121.4L209.3,392.9z"/>
	<path d="M298,98.7c-16.4-16.4-44.3-4.8-44.3,18.4v102.8c0,14.3,11.6,26,26,26h102.8c23.1,0,34.7-28,18.4-44.3l-30-30L492.2,50.1
		c5.1-5.1,5.1-13.3,0-18.4L467.7,7.3c-5.1-5.1-13.3-5.1-18.4,0L328,128.7L298,98.7z"/>
	<path d="M57.5,79.9c0-4,3.2-7.2,7.2-7.2h255.2l57.5-57.5H57.5C25.7,15.2,0,41,0,72.7v319.9l57.5-57.5V79.9z"/>
	<path d="M435.8,443.9c0,4-3.2,7.2-7.2,7.2H155.3l-57.5,57.5h338c31.8,0,57.5-25.7,57.5-57.5V113.2l-57.5,57.5V443.9z"/>
</g>
</svg>
