<?xml version="1.0" encoding="utf-8"?>
<!-- Generator: Adobe Illustrator 23.0.3, SVG Export Plug-In . SVG Version: 6.00 Build 0)  -->
<svg version="1.1" id="Calque_1" xmlns="http://www.w3.org/2000/svg" xmlns:xlink="http://www.w3.org/1999/xlink" x="0px" y="0px"
	 viewBox="0 0 496 512" style="enable-background:new 0 0 496 512;" xml:space="preserve">
<path d="M280,416c0,17.7-14.3,32-32,32s-32-14.3-32-32s14.3-32,32-32S280,398.3,280,416z M408,48v416c0,26.5-21.5,48-48,48H136
	c-26.5,0-48-21.5-48-48V48c0-26.5,21.5-48,48-48h224C386.5,0,408,21.5,408,48z M360,458V54c0-3.3-2.7-6-6-6H142c-3.3,0-6,2.7-6,6
	v404c0,3.3,2.7,6,6,6h212C357.3,464,360,461.3,360,458z"/>
</svg>
