<?xml version="1.0" encoding="utf-8"?>
<!-- Generator: Adobe Illustrator 23.0.2, SVG Export Plug-In . SVG Version: 6.00 Build 0)  -->
<svg version="1.1" id="Calque_1" xmlns="http://www.w3.org/2000/svg" xmlns:xlink="http://www.w3.org/1999/xlink" x="0px" y="0px"
	 viewBox="0 0 496 512" style="enable-background:new 0 0 496 512;" xml:space="preserve">
<path d="M363.7,238l-176-107c-15.8-8.8-35.7,2.5-35.7,21v208c0,18.4,19.8,29.8,35.7,21l176-101C380.1,270.9,380.1,247.2,363.7,238z
	 M496,256C496,119,385,8,248,8S0,119,0,256s111,248,248,248S496,393,496,256z M48,256c0-110.5,89.5-200,200-200s200,89.5,200,200
	s-89.5,200-200,200S48,366.5,48,256z"/>
</svg>
