<?xml version="1.0" encoding="utf-8"?>
<!-- Generator: Adobe Illustrator 23.0.1, SVG Export Plug-In . SVG Version: 6.00 Build 0)  -->
<svg version="1.1" id="Calque_1" xmlns="http://www.w3.org/2000/svg" xmlns:xlink="http://www.w3.org/1999/xlink" x="0px" y="0px"
	 viewBox="0 0 512 512" style="enable-background:new 0 0 512 512;" xml:space="preserve">
<path d="M256.8,8C170.2,7.7,93.9,51.8,49.4,118.9l2.3-98.6C51.9,13.5,46.5,8,39.7,8H12C5.4,8,0,13.4,0,20v192c0,6.6,5.4,12,12,12
	c44.1,0,65.3-48.7,65.3-48.7C108.1,107.3,176.5,60,256,60c108.3,0,196,87.7,196,196c0,108.3-87.7,196-196,196
	c-50.1,0-95.8-18.8-130.4-49.6c-4.7-4.2-12-3.9-16.5,0.6l-19.7,19.7c-4.9,4.9-4.6,12.8,0.5,17.4c44,39.7,102.3,63.9,166.2,63.9
	c136.8,0,247.8-110.8,248-247.6C504.2,120,393.2,8.4,256.8,8z"/>
<path d="M254.4,368.7c-15.9,0-25.4-3.2-34.9-12.7c-9.5-9.5-15.9-19-15.9-34.9h-31.7c3.2,22.2,9.5,41.3,25.4,54
	c15.9,12.7,34.9,19,57.1,19c28.6,0,47.6-9.5,63.5-25.4c15.9-15.9,22.2-38.1,22.2-66.7s-6.3-50.8-22.2-66.7S283,210,257.6,210
	c-15.9,0-31.7,3.2-44.4,12.7l9.5-73h111.1v-31.7H194.1l-12.7,136.5l28.6,6.3l9.5-6.3c9.5-6.3,19-9.5,34.9-9.5
	c15.9,0,28.6,6.3,38.1,15.9c9.5,9.5,15.9,25.4,15.9,44.4s-3.2,34.9-12.7,44.4S270.3,368.7,254.4,368.7z"/>
</svg>
