<?xml version="1.0" encoding="utf-8"?>
<!-- Generator: Adobe Illustrator 23.0.1, SVG Export Plug-In . SVG Version: 6.00 Build 0)  -->
<svg version="1.1" id="Calque_1" xmlns="http://www.w3.org/2000/svg" xmlns:xlink="http://www.w3.org/1999/xlink" x="0px" y="0px"
	 viewBox="0 0 512 512" style="enable-background:new 0 0 512 512;" xml:space="preserve">
<path d="M256.8,8C170.2,7.7,93.9,51.8,49.4,118.9l2.3-98.6C51.9,13.5,46.5,8,39.7,8H12C5.4,8,0,13.4,0,20v192c0,6.6,5.4,12,12,12
	c44.1,0,65.3-48.7,65.3-48.7C108.1,107.3,176.5,60,256,60c108.3,0,196,87.7,196,196c0,108.3-87.7,196-196,196
	c-50.1,0-95.8-18.8-130.4-49.6c-4.7-4.2-12-3.9-16.5,0.6l-19.7,19.7c-4.9,4.9-4.6,12.8,0.5,17.4c44,39.7,102.3,63.9,166.2,63.9
	c136.8,0,247.8-110.8,248-247.6C504.2,120,393.2,8.4,256.8,8z"/>
<path d="M153.4,361.4v-35.1h24V185.7h-7.8l-42.9,54.7L99.3,217l50.8-66.4h70.3v175.7h24.6v35.1H153.4z"/>
<path d="M330.7,365.3c-27.3,0-46.9-7.8-62.5-27.3c-11.7-19.5-19.5-46.9-19.5-82s7.8-62.5,19.5-82s35.1-27.3,62.5-27.3
	c27.3,0,46.9,7.8,62.5,27.3c11.7,19.5,19.5,46.9,19.5,82s-7.8,62.5-19.5,82C377.5,353.6,358,365.3,330.7,365.3z M330.7,326.3
	c11.7,0,19.5-3.9,23.4-11.7s7.8-19.5,7.8-39v-39c0-15.6-3.9-27.3-7.8-39c-3.9-7.8-11.7-11.7-23.4-11.7s-19.5,3.9-23.4,11.7
	s-7.8,19.5-7.8,39v39c0,15.6,3.9,27.3,7.8,39C311.2,322.4,319,326.3,330.7,326.3z"/>
</svg>
