<?xml version="1.0" encoding="utf-8"?>
<!-- Generator: Adobe Illustrator 23.1.0, SVG Export Plug-In . SVG Version: 6.00 Build 0)  -->
<svg version="1.1" id="Calque_1" xmlns="http://www.w3.org/2000/svg" xmlns:xlink="http://www.w3.org/1999/xlink" x="0px" y="0px"
	 viewBox="0 0 448 512" style="enable-background:new 0 0 448 512;" xml:space="preserve">
<path d="M431.5,79.5h-82.4l-34-56.7c-8.7-14.5-24.3-23.3-41.2-23.3H173.1c-16.9,0-32.5,8.8-41.2,23.3l-34,56.7H15.5
	c-8.8,0-16,7.2-16,16v16c0,8.8,7.2,16,16,16h16v336c0,26.5,21.5,48,48,48l0,0h288c26.5,0,48-21.5,48-48l0,0v-336h16
	c8.8,0,16-7.2,16-16v-16C447.5,86.7,440.3,79.5,431.5,79.5z M171.3,50.4c1.1-1.8,3-2.9,5.2-2.9h94c2.1,0,4.1,1.1,5.1,2.9l17.5,29.1
	H153.9L171.3,50.4z M367.5,463.5h-288v-336h288V463.5z M141.5,287.5h50v96c0,8.8,7.2,16,16,16h32c8.8,0,16-7.2,16-16v-96h50
	c12.5,0,18.7-15.9,9.9-25.2l-80.3-81.8c-6-6.4-16-6.8-22.4-0.8c-0.3,0.2-0.5,0.5-0.8,0.8l-80.3,81.8
	C122.8,271.6,129,287.5,141.5,287.5L141.5,287.5z"/>
</svg>
