<?xml version="1.0" encoding="utf-8"?>
<!-- Generator: Adobe Illustrator 23.0.3, SVG Export Plug-In . SVG Version: 6.00 Build 0)  -->
<svg version="1.1" id="Calque_1" xmlns="http://www.w3.org/2000/svg" xmlns:xlink="http://www.w3.org/1999/xlink" x="0px" y="0px"
	 viewBox="0 0 496 512" style="enable-background:new 0 0 496 512;" xml:space="preserve">
<path d="M480.5,452L368.7,340.2c-2.1-2.1-4.9-3.2-7.8-3.2h-12.2c29-33.6,46.6-77.3,46.6-125.2c0-105.8-85.7-191.5-191.5-191.5
	S12.3,106,12.3,211.8S98,403.3,203.8,403.3c47.9,0,91.6-17.6,125.2-46.6v12.2c0,2.9,1.2,5.7,3.2,7.8L444,488.5
	c4.3,4.3,11.3,4.3,15.7,0l20.8-20.8C484.8,463.3,484.8,456.3,480.5,452z M203.8,359.1c-81.4,0-147.3-65.9-147.3-147.3
	S122.4,64.5,203.8,64.5s147.3,65.9,147.3,147.3S285.2,359.1,203.8,359.1z"/>
</svg>
