<?xml version="1.0" encoding="utf-8"?>
<!-- Generator: Adobe Illustrator 23.0.1, SVG Export Plug-In . SVG Version: 6.00 Build 0)  -->
<svg version="1.1" id="Calque_1" xmlns="http://www.w3.org/2000/svg" xmlns:xlink="http://www.w3.org/1999/xlink" x="0px" y="0px"
	 viewBox="0 0 512 512" style="enable-background:new 0 0 512 512;" xml:space="preserve">
<path d="M48.8,0C21.9,0,0,21.9,0,48.8V317c0,26.8,21.9,48.8,48.8,48.8h48.8V317H48.8V48.8H317v48.8h48.8V48.8
	C365.7,21.9,343.8,0,317,0H48.8z M195.1,146.3c-26.8,0-48.8,21.9-48.8,48.8v48.8h48.8v-48.8h48.8v-48.8H195.1z M292.6,146.3v48.8
	H317v24.4h48.8v-73.1H292.6z M414.5,146.3v48.8h48.8v268.2H195.1v-48.8h-48.8v48.8c0,26.8,21.9,48.8,48.8,48.8h268.2
	c26.8,0,48.8-21.9,48.8-48.8V195.1c0-26.8-21.9-48.8-48.8-48.8H414.5z M317,268.2V317h-48.8v48.8H317c26.8,0,48.8-21.9,48.8-48.8
	v-48.8H317z M146.3,292.6v73.1h73.1V317h-24.4v-24.4H146.3z"/>
</svg>
