<?xml version="1.0" encoding="utf-8"?>
<!-- Generator: Adobe Illustrator 23.0.1, SVG Export Plug-In . SVG Version: 6.00 Build 0)  -->
<svg version="1.1" id="Calque_1" xmlns="http://www.w3.org/2000/svg" xmlns:xlink="http://www.w3.org/1999/xlink" x="0px" y="0px"
	 viewBox="0 0 512 512" style="enable-background:new 0 0 512 512;" xml:space="preserve">
<g>
	<rect y="115.5" width="47.6" height="281"/>
	<rect x="78.6" y="84.5" width="47.6" height="340.5"/>
	<rect x="154.8" y="148.8" width="47.6" height="214.3"/>
	<rect x="233.4" y="175" width="47.6" height="161.9"/>
</g>
<path d="M369.1,17.9H202.4c-26.2,0-47.6,21.4-47.6,47.6v35.7h47.6V65.5h95.3v166.7h166.7v214.3H297.7h-95.3v-35.7h-47.6v35.7
	c0,26.2,21.4,47.6,47.6,47.6h262c26.2,0,47.6-21.4,47.6-47.6V160.7L369.1,17.9z M345.3,184.6v-131l131,131H345.3z"/>
</svg>
