<?xml version="1.0" encoding="utf-8"?>
<!-- Generator: Adobe Illustrator 23.1.0, SVG Export Plug-In . SVG Version: 6.00 Build 0)  -->
<svg version="1.1" id="Calque_1" xmlns="http://www.w3.org/2000/svg" xmlns:xlink="http://www.w3.org/1999/xlink" x="0px" y="0px"
	 viewBox="0 0 512 512" style="enable-background:new 0 0 512 512;" xml:space="preserve">
<path d="M369.8,312.5c0,15.7,12.7,28.4,28.4,28.4c15.7,0,28.4-12.7,28.4-28.4c0-15.7-12.7-28.4-28.4-28.4
	C382.5,284.1,369.8,296.8,369.8,312.5z M199.1,340.9c0,10.4,3,20,7.9,28.4h98c4.9-8.4,7.9-18,7.9-28.4c0-10.4-3-20-7.8-28.3
	l67.3-86.6c7.3-9.3,5.6-22.7-3.7-29.9c-9.4-7.3-22.7-5.6-29.9,3.7l-67.3,86.6c-4.9-1.4-10-2.4-15.4-2.4
	C224.6,284.1,199.1,309.5,199.1,340.9z M284.4,170.3c0-15.7-12.7-28.4-28.4-28.4s-28.4,12.7-28.4,28.4s12.7,28.4,28.4,28.4
	S284.4,186,284.4,170.3z M113.8,284.1c-15.7,0-28.4,12.7-28.4,28.4c0,15.7,12.7,28.4,28.4,28.4s28.4-12.7,28.4-28.4
	C142.2,296.8,129.5,284.1,113.8,284.1z M156.4,241.4c15.7,0,28.4-12.7,28.4-28.4s-12.7-28.4-28.4-28.4S128,197.2,128,212.9
	S140.7,241.4,156.4,241.4z M0,312.5c0,46.9,12.7,90.9,34.7,128.7c5,8.6,14.5,13.5,24.4,13.5h393.8c9.9,0,19.4-5,24.4-13.5
	c22.1-37.8,34.7-81.8,34.7-128.7c0-141.4-114.6-256-256-256S0,171.1,0,312.5z M42.7,312.5c0-117.6,95.7-213.3,213.3-213.3
	s213.3,95.7,213.3,213.3c0,34.8-8.5,69-24.6,99.6H67.3C51.2,381.5,42.7,347.3,42.7,312.5z"/>
</svg>
