<?xml version="1.0" encoding="utf-8"?>
<!-- Generator: Adobe Illustrator 23.0.1, SVG Export Plug-In . SVG Version: 6.00 Build 0)  -->
<svg version="1.1" id="Calque_1" xmlns="http://www.w3.org/2000/svg" xmlns:xlink="http://www.w3.org/1999/xlink" x="0px" y="0px"
	 viewBox="0 0 496 512" style="enable-background:new 0 0 496 512;" xml:space="preserve">
<path d="M356.5,442c42.8,0,77.5-34.7,77.5-77.5S399.3,287,356.5,287c-35.3,0-65,23.5-74.4,55.7c-15.6-0.6-27.6-4.1-35.7-10.7
	c-18.6-14.9-21.7-47.8-24.9-82.5c-2.5-27.3-5.2-55.6-16.4-78.8h139.5c9.9,31.5,39.2,54.3,73.9,54.3c42.8,0,77.5-34.7,77.5-77.5
	S461.3,70,418.5,70c-34.7,0-64,22.8-73.9,54.3H151.5c-10-31.5-39.3-54.3-74-54.3C34.7,70,0,104.7,0,147.5S34.7,225,77.5,225
	c32.9,0,61.1-20.5,72.3-49.6c5,3,9.5,7.6,13,14.4c7.9,15.7,10.1,39.1,12.4,64c3.8,40.9,8.1,87.2,42.1,114.5
	c16.9,13.6,38.6,20.4,65.8,20.9C293.4,419.9,322.4,442,356.5,442L356.5,442z M449.5,147.5c0,17-14,31-31,31s-31-14-31-31
	s14-31,31-31S449.5,130.4,449.5,147.5z M46.5,147.5c0-17.1,13.9-31,31-31s31,14,31,31s-13.9,31-31,31S46.5,164.5,46.5,147.5z
	 M325.5,364.5c0-17.1,13.9-31,31-31c17,0,31,13.9,31,31c0,17-14,31-31,31C339.5,395.5,325.5,381.6,325.5,364.5z"/>
</svg>
