<?xml version="1.0" encoding="utf-8"?>
<!-- Generator: Adobe Illustrator 23.0.2, SVG Export Plug-In . SVG Version: 6.00 Build 0)  -->
<svg version="1.1" id="Calque_1" xmlns="http://www.w3.org/2000/svg" xmlns:xlink="http://www.w3.org/1999/xlink" x="0px" y="0px"
	 viewBox="0 0 496 512" style="enable-background:new 0 0 496 512;" xml:space="preserve">
<path d="M472.8,101h-93c-12.8,0-23.3,10.4-23.3,23.3v93c0,12.8,10.4,23.3,23.3,23.3h93c12.8,0,23.3-10.4,23.3-23.3v-93
	C496,111.4,485.6,101,472.8,101z M449.5,194H403v-46.5h46.5V194z M472.8,271.5h-93c-12.8,0-23.3,10.4-23.3,23.3v93
	c0,12.8,10.4,23.3,23.3,23.3h93c12.8,0,23.3-10.4,23.3-23.3v-93C496,281.9,485.6,271.5,472.8,271.5z M449.5,364.5H403V318h46.5
	V364.5z M116.3,101h-93C10.4,101,0,111.4,0,124.3v93c0,12.8,10.4,23.3,23.3,23.3h93c12.8,0,23.3-10.4,23.3-23.3v-93
	C139.5,111.4,129.1,101,116.3,101z M93,194H46.5v-46.5H93V194z M116.3,271.5h-93C10.4,271.5,0,281.9,0,294.8v93
	C0,400.6,10.4,411,23.3,411h93c12.8,0,23.3-10.4,23.3-23.3v-93C139.5,281.9,129.1,271.5,116.3,271.5z M93,364.5H46.5V318H93V364.5z
	 M294.5,101h-93c-12.8,0-23.3,10.4-23.3,23.3v93c0,12.8,10.4,23.3,23.3,23.3h93c12.8,0,23.3-10.4,23.3-23.3v-93
	C317.8,111.4,307.3,101,294.5,101z M271.3,194h-46.5v-46.5h46.5V194z M294.5,271.5h-93c-12.8,0-23.3,10.4-23.3,23.3v93
	c0,12.8,10.4,23.3,23.3,23.3h93c12.8,0,23.3-10.4,23.3-23.3v-93C317.8,281.9,307.3,271.5,294.5,271.5z M271.3,364.5h-46.5V318h46.5
	V364.5z"/>
</svg>
