<?xml version="1.0" encoding="utf-8"?>
<!-- Generator: Adobe Illustrator 23.0.1, SVG Export Plug-In . SVG Version: 6.00 Build 0)  -->
<svg version="1.1" id="Calque_1" xmlns="http://www.w3.org/2000/svg" xmlns:xlink="http://www.w3.org/1999/xlink" x="0px" y="0px"
	 viewBox="0 0 512 512" style="enable-background:new 0 0 512 512;" xml:space="preserve">
<path d="M343.5,508.5l-100-100.4c-4.7-4.7-4.7-12.3,0-17l19.6-19.6c4.8-4.8,12.5-4.7,17.1,0.2l47.7,51.2V12c0-6.6,5.4-12,12-12h24
	c6.6,0,12,5.4,12,12v410.9l47.7-51.2c4.7-4.8,12.4-4.9,17.1-0.2l19.6,19.6c4.7,4.7,4.7,12.3,0,17l-100,100.4
	C355.8,513.2,348.2,513.2,343.5,508.5z M151.5,3.5l-100,100.4c-4.7,4.7-4.7,12.3,0,17l19.6,19.6c4.8,4.8,12.5,4.7,17.1-0.2L136,89.1
	V500c0,6.6,5.4,12,12,12h24c6.6,0,12-5.4,12-12V89.1l47.7,51.2c4.7,4.8,12.4,4.9,17.1,0.2l19.6-19.6c4.7-4.7,4.7-12.3,0-17
	L168.5,3.5C163.8-1.2,156.2-1.2,151.5,3.5L151.5,3.5z"/>
</svg>
