<?xml version="1.0" encoding="utf-8"?>
<!-- Generator: Adobe Illustrator 23.0.6, SVG Export Plug-In . SVG Version: 6.00 Build 0)  -->
<svg version="1.1" id="Calque_1" xmlns="http://www.w3.org/2000/svg" xmlns:xlink="http://www.w3.org/1999/xlink" x="0px" y="0px"
	 viewBox="0 0 496 512" style="enable-background:new 0 0 496 512;" xml:space="preserve">
<path d="M187.4,320.6h-22.3c-6.4,0-12.8,6.4-12.8,12.8v70.2c0,6.4,6.4,12.8,12.8,12.8h22.3c6.4,0,12.8-6.4,12.8-12.8v-70.2
	C200.1,327,193.8,320.6,187.4,320.6z M259.2,256.8h-22.3c-6.4,0-12.8,6.4-12.8,12.8v134c0,6.4,6.4,12.8,12.8,12.8h22.3
	c6.4,0,12.8-6.4,12.8-12.8v-134C271.9,263.2,265.5,256.8,259.2,256.8L259.2,256.8z M308.6,416.3h22.3c6.4,0,12.8-6.4,12.8-12.8
	V301.4c0-6.4-6.4-12.8-12.8-12.8h-22.3c-6.4,0-12.8,6.4-12.8,12.8v102.1C295.9,409.9,302.2,416.3,308.6,416.3L308.6,416.3z
	 M425.3,99.2l-83.6-83.6c-9-9-21.1-14.1-33.8-14.1H104.4C78,1.7,56.6,23.1,56.6,49.5v414.7c0,26.4,21.4,47.8,47.8,47.8h287.1
	c26.4,0,47.9-21.4,47.9-47.8v-331C439.4,120.5,434.3,108.2,425.3,99.2z M311.8,53.4l75.9,75.8h-75.9L311.8,53.4L311.8,53.4z
	 M391.6,464.2H104.4V49.5h159.5v103.7c0,13.3,10.7,23.9,23.9,23.9h103.7V464.2z"/>
</svg>
