<?xml version="1.0" encoding="utf-8"?>
<!-- Generator: Adobe Illustrator 23.0.3, SVG Export Plug-In . SVG Version: 6.00 Build 0)  -->
<svg version="1.1" id="Calque_1" xmlns="http://www.w3.org/2000/svg" xmlns:xlink="http://www.w3.org/1999/xlink" x="0px" y="0px"
	 viewBox="0 0 496 512" style="enable-background:new 0 0 496 512;" xml:space="preserve">
<path d="M482.4,226.9L277.1,21.6C268.4,12.9,256.6,8,244.2,8H46.5C20.8,8,0,28.8,0,54.5v197.7c0,12.3,4.9,24.2,13.6,32.9
	l205.3,205.3c18.2,18.2,47.6,18.2,65.8,0l197.7-197.7C500.5,274.5,500.5,245,482.4,226.9L482.4,226.9z M251.8,457.5L46.5,252.2V54.5
	h197.7l205.3,205.3L251.8,457.5z M186,147.5c0,25.7-20.8,46.5-46.5,46.5S93,173.2,93,147.5s20.8-46.5,46.5-46.5S186,121.8,186,147.5
	z"/>
</svg>
