<?xml version="1.0" encoding="utf-8"?>
<!-- Generator: Adobe Illustrator 23.0.3, SVG Export Plug-In . SVG Version: 6.00 Build 0)  -->
<svg version="1.1" id="Calque_1" xmlns="http://www.w3.org/2000/svg" xmlns:xlink="http://www.w3.org/1999/xlink" x="0px" y="0px"
	 viewBox="0 0 496 512" style="enable-background:new 0 0 496 512;" xml:space="preserve">
<path d="M485.1,284.9L326.9,443.1c-14.5,14.5-38.1,14.5-52.6,0l-0.3-0.3l184.8-184.2l-202-201.4h37.8c9.9,0,19.3,3.9,26.3,10.9
	l164.2,164.2C499.6,246.8,499.6,270.4,485.1,284.9L485.1,284.9z M385.9,284.9L227.7,443.1c-7.3,7.3-16.8,10.9-26.3,10.9
	c-9.5,0-19-3.6-26.3-10.9L10.9,278.9c-7-7-10.9-16.4-10.9-26.3V94.4c0-20.5,16.7-37.2,37.2-37.2h158.2c9.9,0,19.3,3.9,26.3,10.9
	l164.2,164.2C400.4,246.8,400.4,270.4,385.9,284.9z M359.6,258.6L195.4,94.4H37.2v158.2l164.2,164.2L359.6,258.6z M111.6,131.6
	c-20.5,0-37.2,16.7-37.2,37.2S91.1,206,111.6,206s37.2-16.7,37.2-37.2S132.1,131.6,111.6,131.6z"/>
</svg>
