<?xml version="1.0" encoding="utf-8"?>
<!-- Generator: Adobe Illustrator 23.0.1, SVG Export Plug-In . SVG Version: 6.00 Build 0)  -->
<svg version="1.1" id="Calque_1" xmlns="http://www.w3.org/2000/svg" xmlns:xlink="http://www.w3.org/1999/xlink" x="0px" y="0px"
	 viewBox="0 0 512 512" style="enable-background:new 0 0 512 512;" xml:space="preserve">
<path d="M212.7,342.5c6.3,6.3,16.4,6.3,22.6,0l84.7-84.7l87.6,87.6l-29.5,29.5c-15.1,15.1-4.4,41,17,41H496c8.8,0,16-7.2,16-16
	V298.9c0-21.4-25.9-32.1-41-17l-29.5,29.5L331.3,201.2c-6.3-6.3-16.4-6.3-22.6,0L224,285.9L38.9,100.8c-6.3-6.3-16.4-6.3-22.6,0
	L5,112.1c-6.3,6.3-6.3,16.4,0,22.6L212.7,342.5z"/>
</svg>
