<?xml version="1.0" encoding="utf-8"?>
<!-- Generator: Adobe Illustrator 23.0.3, SVG Export Plug-In . SVG Version: 6.00 Build 0)  -->
<svg version="1.1" id="Calque_1" xmlns="http://www.w3.org/2000/svg" xmlns:xlink="http://www.w3.org/1999/xlink" x="0px" y="0px"
	 viewBox="0 0 496 512" style="enable-background:new 0 0 496 512;" xml:space="preserve">
<path d="M468.4,118.2c-5.3,0-10.8,1.6-15.7,4.9L358.2,182v-50.2c0-22.7-20-41.2-44.6-41.2h-269C20,90.7,0,109.1,0,131.8v248.3
	c0,22.7,20,41.2,44.6,41.2h269c24.6,0,44.6-18.4,44.6-41.2V330l94.5,58.8c4.9,3.4,10.4,4.9,15.7,4.9c14.3,0,27.6-11.2,27.6-27.1
	V145.3C496,129.4,482.7,118.2,468.4,118.2z M316.9,207.8v171.3c-0.5,0.3-1.5,0.9-3.3,0.9h-269c-1.7,0-2.8-0.5-3.3-0.9V132.9
	c0.5-0.3,1.6-0.9,3.3-0.9h269c1.7,0,2.8,0.5,3.3,0.9L316.9,207.8L316.9,207.8z M454.7,341.4l-96.4-60.1v-50.5l96.4-60.1V341.4z"/>
</svg>
