<?xml version="1.0" encoding="utf-8"?>
<!-- Generator: Adobe Illustrator 23.0.3, SVG Export Plug-In . SVG Version: 6.00 Build 0)  -->
<svg version="1.1" id="Calque_1" xmlns="http://www.w3.org/2000/svg" xmlns:xlink="http://www.w3.org/1999/xlink" x="0px" y="0px"
	 viewBox="0 0 496 512" style="enable-background:new 0 0 496 512;" xml:space="preserve">
<g>
	<polygon points="290.5,323.4 319.5,352.5 332,340 415,257 332,174 319.5,161.5 290.5,190.6 332,232.1 356.9,257 332,281.9 	"/>
	<polygon points="207.5,190.6 178.5,161.5 166,174 83,257 166,340 178.5,352.5 207.5,323.4 166,281.9 141.1,257 166,232.1 	"/>
	<path d="M0,91v332c0,22.8,18.7,41.5,41.5,41.5h186.7V423h-41.5H51.9H41.5V277.8v-41.5V91h10.4h134.9h41.5V49.5H41.5
		C18.7,49.5,0,68.2,0,91z"/>
	<path d="M456.5,49.5H269.8V91h41.5h145.2v145.3v41.5V423H311.3h-41.5v41.5h186.7c22.8,0,41.5-18.7,41.5-41.5V91
		C498,68.2,479.3,49.5,456.5,49.5z"/>
</g>
</svg>
