<?xml version="1.0" encoding="utf-8"?>
<!-- Generator: Adobe Illustrator 23.0.1, SVG Export Plug-In . SVG Version: 6.00 Build 0)  -->
<svg version="1.1" id="Calque_1" xmlns="http://www.w3.org/2000/svg" xmlns:xlink="http://www.w3.org/1999/xlink" x="0px" y="0px"
	 viewBox="0 0 512 512" style="enable-background:new 0 0 512 512;" xml:space="preserve">
<path d="M464,0H144c-26.5,0-48,21.5-48,48v48H48c-26.5,0-48,21.5-48,48v320c0,26.5,21.5,48,48,48h320c26.5,0,48-21.5,48-48v-48h48
	c26.5,0,48-21.5,48-48V48C512,21.5,490.5,0,464,0z M362,464H54c-3.3,0-6-2.7-6-6V150c0-3.3,2.7-6,6-6h42v224c0,26.5,21.5,48,48,48
	h224v42C368,461.3,365.3,464,362,464z M458,368H150c-3.3,0-6-2.7-6-6V54c0-3.3,2.7-6,6-6h308c3.3,0,6,2.7,6,6v308
	C464,365.3,461.3,368,458,368z"/>
<path d="M428.6,150.7L278.1,299.9c-4.1,4.1-10.7,4-14.8-0.1l-79.1-79.8c-4.1-4.1-4-10.7,0.1-14.8l19.8-19.6c4.1-4.1,10.7-4,14.8,0.1
	l52.1,52.5l123.2-122.2c4.1-4.1,10.7-4,14.8,0.1l19.6,19.8C432.7,140,432.7,146.7,428.6,150.7L428.6,150.7z"/>
</svg>
