<?xml version="1.0" encoding="utf-8"?>
<!-- Generator: Adobe Illustrator 23.0.1, SVG Export Plug-In . SVG Version: 6.00 Build 0)  -->
<svg version="1.1" id="Calque_1" xmlns="http://www.w3.org/2000/svg" xmlns:xlink="http://www.w3.org/1999/xlink" x="0px" y="0px"
	 viewBox="0 0 640 512" style="enable-background:new 0 0 640 512;" xml:space="preserve">
<path d="M315.3,255.5c6.8-19,16.4-36.5,28.4-52.2c-7.4,3-15.4,4.7-23.8,4.7c-35.3,0-64-28.7-64-64s28.7-64,64-64s64,28.7,64,64
	c0,8.4-1.7,16.4-4.7,23.8c15.7-12,33.2-21.7,52.2-28.4C429,79.7,380.3,32,320,32c-61.9,0-112,50.1-112,112
	C208,204.3,255.7,253,315.3,255.5z M96,224c44.2,0,80-35.8,80-80s-35.8-80-80-80s-80,35.8-80,80S51.8,224,96,224z M96,112
	c17.6,0,32,14.4,32,32s-14.4,32-32,32s-32-14.4-32-32S78.4,112,96,112z M340.3,432H176v-44.8c0-36.4,29.2-66.2,65.4-67.2
	c20.6,8.6,41.9,13.6,63.4,15.2c-0.7-9.3-2-24,2.3-48.6c-16.8-1.5-33.1-4.9-48-11.2c-5.1-2.1-10.4-3.4-15.9-3.4
	C179.6,272,128,323.6,128,387.2V432c0,26.5,21.5,48,48,48h214C370.6,467.1,353.8,450.8,340.3,432z M154.8,270.3
	c-13.4-9-29.5-14.3-46.8-14.3H84c-46.3,0-84,37.7-84,84c0,13.2,10.8,24,24,24s24-10.8,24-24c0-19.8,16.2-36,36-36h24
	c4.4,0,8.5,1.1,12.3,2.5C129.6,292.5,141.4,280.4,154.8,270.3z"/>
<path d="M592,296h-72v-72c0-8.8-7.2-16-16-16h-16c-8.8,0-16,7.2-16,16v72h-72c-8.8,0-16,7.2-16,16v16c0,8.8,7.2,16,16,16h72v72
	c0,8.8,7.2,16,16,16h16c8.8,0,16-7.2,16-16v-72h72c8.8,0,16-7.2,16-16v-16C608,303.2,600.8,296,592,296z"/>
</svg>
