<?xml version="1.0" encoding="utf-8"?>
<!-- Generator: Adobe Illustrator 23.0.6, SVG Export Plug-In . SVG Version: 6.00 Build 0)  -->
<svg version="1.1" id="Calque_1" xmlns="http://www.w3.org/2000/svg" xmlns:xlink="http://www.w3.org/1999/xlink" x="0px" y="0px"
	 viewBox="0 0 576 512" style="enable-background:new 0 0 576 512;" xml:space="preserve">
<path d="M543.9,96c-6.2,0-12.5,1.8-18.2,5.7L416,170.1v-58.3c0-26.4-23.2-47.8-51.8-47.8H51.8C23.2,64,0,85.4,0,111.8v288.4
	C0,426.6,23.2,448,51.8,448h312.4c28.6,0,51.8-21.4,51.8-47.8v-58.3l109.7,68.3c5.7,4,12.1,5.7,18.2,5.7c16.6,0,32.1-13,32.1-31.5
	V127.5C576,109,560.5,96,543.9,96z M368,200v198.9c-0.6,0.4-1.8,1.1-3.8,1.1H51.8c-2,0-3.2-0.6-3.8-1.1V113.1
	c0.6-0.4,1.8-1.1,3.8-1.1h312.4c2,0,3.2,0.6,3.8,1.1L368,200L368,200z M528,355.2l-112-69.8v-58.7l112-69.8V355.2z"/>
<g>
	<path d="M208,324c0,10.7-12.9,16-20.5,8.5l-35.5-36h-28c-6.6,0-12-5.4-12-12v-56c0-6.6,5.4-12,12-12h28l35.5-36.9
		c7.6-7.6,20.5-2.2,20.5,8.5V324z"/>
	<path d="M249.2,276.8c9.1-9.3,9.1-24.1,0-33.4c-22.1-22.8,12.2-56.2,34.4-33.5c27.2,27.9,27.2,72.4,0,100.4
		C261.8,332.7,226.7,300,249.2,276.8L249.2,276.8z"/>
</g>
</svg>
