<?xml version="1.0" encoding="utf-8"?>
<!-- Generator: Adobe Illustrator 23.0.1, SVG Export Plug-In . SVG Version: 6.00 Build 0)  -->
<svg version="1.1" id="Calque_1" xmlns="http://www.w3.org/2000/svg" xmlns:xlink="http://www.w3.org/1999/xlink" x="0px" y="0px"
	 viewBox="0 0 526.6 512" style="enable-background:new 0 0 526.6 512;" xml:space="preserve">
<path d="M231.8,64c-5.9,0-11.9,2.2-16.8,7.1l-89,88.9H24c-13.3,0-24,10.7-24,24v144c0,13.3,10.7,24,24,24h102.1l89,89
	c4.9,4.9,10.9,7,16.8,7c12.3,0,24.2-9.5,24.2-24V88C256,73.5,244.1,64,231.8,64z M208,366l-62.1-62H48v-96h97.9l62.1-62.1V366z"/>
<path d="M510.6,233h-72v-72c0-8.8-7.2-16-16-16h-16c-8.8,0-16,7.2-16,16v72h-72c-8.8,0-16,7.2-16,16v16c0,8.8,7.2,16,16,16h72v72
	c0,8.8,7.2,16,16,16h16c8.8,0,16-7.2,16-16v-72h72c8.8,0,16-7.2,16-16v-16C526.6,240.2,519.4,233,510.6,233z"/>
</svg>
